<svg width="908" height="876" viewBox="0 0 908 876" fill="none" xmlns="http://www.w3.org/2000/svg">
<path d="M131.48 275.06C129.397 293.801 157.735 323.209 160.282 341.876L140.502 334.578L43.6961 277.976C35.6749 273.097 27.7044 268.91 20.4684 263.702C7.44719 254.331 2.4535 239.799 6.57483 224.466C10.7492 208.936 21.3883 200.402 36.9982 197.951C60.5404 194.255 84.1061 190.706 107.677 187.193C126.13 184.443 144.607 181.844 163.045 179.509L163.015 179.607C162.748 180.491 162.561 181.109 162.24 181.648C145.075 210.511 135.18 241.772 131.48 275.06Z" fill="#FF6A00"/>
<path d="M95.9172 224.96C96.6772 171.165 113.781 123.205 148.25 81.8843C184.811 38.0572 231.573 11.1916 288.047 2.88439C367.776 -8.84364 435.875 15.2818 491.13 73.6418C526.457 110.954 545.913 156.191 550 207.415C555.139 271.843 535.324 328.243 492.875 376.819C492.482 377.27 492.129 377.757 491.172 378.966C494.942 378.966 497.87 378.969 500.797 378.966C554.292 378.913 607.836 380.289 661.269 378.452C731.237 376.046 793.111 352.259 842.93 301.348C848.156 296.008 852.812 290.08 857.438 284.194C861.367 279.195 866.171 276.249 872.513 277.465C879.328 278.771 883.509 283.251 885.263 290.013C892.575 318.207 899.182 346.543 902.774 375.498C908.25 419.635 909.561 463.79 903.673 508.016C896.88 559.039 883.234 608.038 859.879 654.021C835.31 702.395 802.544 744.516 761.323 779.91C712.428 821.893 656.595 850.323 593.866 865.15C564.912 871.993 535.548 875.476 505.791 875.496C466.128 875.523 426.457 876.027 386.804 875.376C314.922 874.197 249.271 853.135 190.382 811.644C147.621 781.516 114.076 743.31 90.6753 696.46C70.4035 655.875 60.0829 612.885 63.6127 567.471C69.3163 494.088 101.47 435.217 162.481 392.927C163.165 392.453 163.843 391.967 164.503 391.46C165.023 391.059 165.511 390.617 166.346 389.913C160.455 383.564 154.63 377.287 148.432 370.508C147.716 369.445 147.432 368.837 147.02 368.334C125.723 342.37 111.255 312.945 102.608 280.588C97.7394 262.37 95.8309 243.781 95.9172 224.96Z" fill="#FECC04"/>
<path d="M670.185 486.897C688.517 486.897 706.354 486.68 724.178 487.061C728.24 487.148 732.688 488.573 736.204 490.656C742.725 494.519 743.346 501.094 741.667 507.831C731.683 547.889 713.96 584.179 688.129 616.406C680.668 625.715 673.232 635.167 664.758 643.511C654.376 653.734 643.243 663.272 631.845 672.368C614.13 686.505 594.799 698.187 574.275 707.864C551.318 718.688 527.403 726.739 502.205 729.702C486.269 731.575 469.987 732.559 454.012 731.547C433.467 730.246 413.574 724.879 394.636 716.207C372.704 706.163 353.256 692.646 337.551 674.485C320.263 654.494 308.373 631.587 304.063 605.033C300.336 582.07 302.646 559.893 312.79 539.1C325.844 512.344 346.233 493.882 376.355 488.114C381.366 487.154 386.584 486.952 391.707 486.948C484.366 486.881 577.026 486.898 670.185 486.897Z" fill="#FDB102"/>
<path d="M293.414 216.102C290.22 237.22 273.785 251.382 253.725 250.689C233.824 250.001 217.154 233.929 215.969 214.287C214.702 193.294 228.251 175.851 248.602 172.274C274.129 167.787 296.603 189.53 293.414 216.102Z" fill="#151513"/>
</svg>
