<svg width="903" height="876" viewBox="0 0 903 876" fill="none" xmlns="http://www.w3.org/2000/svg">
<path d="M282.885 2.88434C362.614 -8.84364 430.713 15.2822 485.968 73.6422C521.295 110.954 540.751 156.192 544.837 207.415C549.977 271.843 530.162 328.244 487.713 376.82C487.319 377.271 486.966 377.757 486.01 378.966C489.779 378.966 492.707 378.969 495.635 378.966C549.13 378.914 602.674 380.29 656.107 378.453C726.075 376.047 787.948 352.259 837.768 301.348C842.993 296.008 847.649 290.08 852.276 284.194C856.205 279.195 861.009 276.25 867.351 277.465C874.166 278.772 878.347 283.251 880.101 290.013C887.413 318.207 894.019 346.544 897.612 375.499C903.088 419.636 904.399 463.791 898.511 508.017C891.718 559.039 878.072 608.038 854.717 654.021C830.148 702.395 797.382 744.516 756.161 779.91C707.266 821.893 651.433 850.323 588.703 865.15C559.749 871.993 530.386 875.476 500.629 875.497C460.966 875.524 421.294 876.027 381.642 875.377C309.76 874.197 244.109 853.135 185.22 811.644C142.458 781.516 108.914 743.31 85.5129 696.461C65.2412 655.875 54.9207 612.886 58.4504 567.471C64.1541 494.088 96.308 435.217 157.319 392.927C158.003 392.453 158.68 391.968 159.34 391.461C159.861 391.06 160.349 390.617 161.184 389.913C155.292 383.564 149.467 377.288 143.27 370.508C142.553 369.446 142.27 368.837 141.858 368.335C129.791 353.624 119.918 337.801 112.052 320.963L38.5315 277.976C30.5104 273.097 22.5399 268.91 15.304 263.703C2.2828 254.332 -2.71092 239.799 1.41041 224.466C5.58478 208.936 16.2235 200.403 31.8333 197.952C52.52 194.704 73.2254 191.571 93.9358 188.475C100.385 149.272 116.615 113.62 143.088 81.8843C179.648 38.0574 226.411 11.1916 282.885 2.88434Z" fill="#FECC04"/>
</svg>
